# xmcd CD database file
#
# Track frame offsets:
#	182
#	24582
#	51847
#	84452
#	108322
#	156602
#	194687
#
# Disc length: 2857 seconds
#
# Revision: 0
# Processed by: cddbd v1.5PL3 Copyright (c) Steve Scherf et al.
# Submitted via: CDex 1.50
#
DISCID=5c0b2707
DTITLE=hans jöst - die jakobsleiter
DYEAR=1988
DGENRE=New Age
TTITLE0=inductio
TTITLE1=uranicus
TTITLE2=artis
TTITLE3=cultus
TTITLE4=rondeau
TTITLE5=chorda
TTITLE6=polemonium
EXTD=YEAR: 1988
EXTT0=
EXTT1=
EXTT2=
EXTT3=
EXTT4=
EXTT5=
EXTT6=
PLAYORDER=
